<?xml version="1.0" encoding="UTF-8"?>
<svg width="772px" height="250px" viewBox="0 0 772 250" version="1.1" xmlns="http://www.w3.org/2000/svg" xmlns:xlink="http://www.w3.org/1999/xlink">
    <!-- Generator: Sketch 43.1 (39012) - http://www.bohemiancoding.com/sketch -->
    <title>banner</title>
    <desc>Created with Sketch.</desc>
    <defs></defs>
    <g id="Page-1" stroke="none" stroke-width="1" fill="none" fill-rule="evenodd">
        <g id="banner" stroke-width="1.51" fill-rule="nonzero">
            <g id="pattern_4" transform="translate(-106.000000, -94.000000)">
                <polygon id="Shape" stroke="#AA6A78" fill="#AA6A78" points="914 109 871 117 939 181"></polygon>
                <polygon id="Shape" stroke="#A97A97" fill="#A97A97" points="871 117 894 209 939 181"></polygon>
                <polygon id="Shape" stroke="#B1839C" fill="#B1839C" points="871 117 840 171 894 209"></polygon>
                <polygon id="Shape" stroke="#70539E" fill="#70539E" points="833 345 905 378 912 309"></polygon>
                <polygon id="Shape" stroke="#A55661" fill="#A55661" points="900 68 871 117 914 109"></polygon>
                <polygon id="Shape" stroke="#9076B5" fill="#9076B5" points="890 265 834 278 912 309"></polygon>
                <polygon id="Shape" stroke="#8870B0" fill="#8870B0" points="834 278 833 345 912 309"></polygon>
                <polygon id="Shape" stroke="#A38BBF" fill="#A38BBF" points="829 245 890 265 894 209"></polygon>
                <polygon id="Shape" stroke="#A95A60" fill="#A95A60" points="831 81 871 117 900 68"></polygon>
                <polygon id="Shape" stroke="#AF95BE" fill="#AF95BE" points="840 171 829 245 894 209"></polygon>
                <polygon id="Shape" stroke="#9F8CC0" fill="#9F8CC0" points="829 245 834 278 890 265"></polygon>
                <polygon id="Shape" stroke="#9280B8" fill="#9280B8" points="812 292 833 345 834 278"></polygon>
                <polygon id="Shape" stroke="#BB858A" fill="#BB858A" points="784 127 840 171 871 117"></polygon>
                <polygon id="Shape" stroke="#B77674" fill="#B77674" points="831 81 784 127 871 117"></polygon>
                <polygon id="Shape" stroke="#B7A3C2" fill="#B7A3C2" points="788 200 829 245 840 171"></polygon>
                <polygon id="Shape" stroke="#8878B1" fill="#8878B1" points="812 292 792 346 833 345"></polygon>
                <polygon id="Shape" stroke="#BF9DA7" fill="#BF9DA7" points="784 127 788 200 840 171"></polygon>
                <polygon id="Shape" stroke="#A192C2" fill="#A192C2" points="829 245 812 292 834 278"></polygon>
                <polygon id="Shape" stroke="#AAA0C9" fill="#AAA0C9" points="765 242 812 292 829 245"></polygon>
                <polygon id="Shape" stroke="#B6ADCE" fill="#B6ADCE" points="788 200 765 242 829 245"></polygon>
                <polygon id="Shape" stroke="#BA796C" fill="#BA796C" points="765 63 784 127 831 81"></polygon>
                <polygon id="Shape" stroke="#C18270" fill="#C18270" points="765 63 748 82 784 127"></polygon>
                <polygon id="Shape" stroke="#968CBD" fill="#968CBD" points="739 303 792 346 812 292"></polygon>
                <polygon id="Shape" stroke="#A9A1CA" fill="#A9A1CA" points="765 242 739 303 812 292"></polygon>
                <polygon id="Shape" stroke="#CCABAA" fill="#CCABAA" points="710 141 760 208 784 127"></polygon>
                <polygon id="Shape" stroke="#C3ABB7" fill="#C3ABB7" points="784 127 760 208 788 200"></polygon>
                <polygon id="Shape" stroke="#C0B7D3" fill="#C0B7D3" points="760 208 765 242 788 200"></polygon>
                <polygon id="Shape" stroke="#9186B9" fill="#9186B9" points="739 303 723 361 792 346"></polygon>
                <polygon id="Shape" stroke="#D0BBC0" fill="#D0BBC0" points="710 141 709 189 760 208"></polygon>
                <polygon id="Shape" stroke="#B5B0D2" fill="#B5B0D2" points="752 240 739 303 765 242"></polygon>
                <polygon id="Shape" stroke="#CC9787" fill="#CC9787" points="748 82 710 141 784 127"></polygon>
                <polygon id="Shape" stroke="#BEB8D5" fill="#BEB8D5" points="760 208 752 240 765 242"></polygon>
                <polygon id="Shape" stroke="#BCB8D7" fill="#BCB8D7" points="680 241 739 303 752 240"></polygon>
                <polygon id="Shape" stroke="#C8BFD6" fill="#C8BFD6" points="709 189 752 240 760 208"></polygon>
                <polygon id="Shape" stroke="#CCC7DF" fill="#CCC7DF" points="709 189 680 241 752 240"></polygon>
                <polygon id="Shape" stroke="#D7B7B1" fill="#D7B7B1" points="707 143 709 189 710 141"></polygon>
                <polygon id="Shape" stroke="#9E95C3" fill="#9E95C3" points="687 323 723 361 739 303"></polygon>
                <polygon id="Shape" stroke="#D1977E" fill="#D1977E" points="659 65 710 141 748 82"></polygon>
                <polygon id="Shape" stroke="#B6B0D4" fill="#B6B0D4" points="680 241 687 323 739 303"></polygon>
                <polygon id="Shape" stroke="#DDAF99" fill="#DDAF99" points="643 94 707 143 710 141"></polygon>
                <polygon id="Shape" stroke="#DAA286" fill="#DAA286" points="659 65 643 94 710 141"></polygon>
                <polygon id="Shape" stroke="#978DBD" fill="#978DBD" points="687 323 697 360 723 361"></polygon>
                <polygon id="Shape" stroke="#BFBBDB" fill="#BFBBDB" points="680 241 628 296 687 323"></polygon>
                <polygon id="Shape" stroke="#E2C5B9" fill="#E2C5B9" points="624 115 635 217 707 143"></polygon>
                <polygon id="Shape" stroke="#DAC8CB" fill="#DAC8CB" points="707 143 635 217 709 189"></polygon>
                <polygon id="Shape" stroke="#D8D2E4" fill="#D8D2E4" points="635 217 680 241 709 189"></polygon>
                <polygon id="Shape" stroke="#E1B095" fill="#E1B095" points="643 94 624 115 707 143"></polygon>
                <polygon id="Shape" stroke="#E9CDBC" fill="#E9CDBC" points="624 115 598 138 635 217"></polygon>
                <polygon id="Shape" stroke="#9789BC" fill="#9789BC" points="687 323 653 394 697 360"></polygon>
                <polygon id="Shape" stroke="#9C8EBF" fill="#9C8EBF" points="600 370 653 394 687 323"></polygon>
                <polygon id="Shape" stroke="#AEA8CE" fill="#AEA8CE" points="628 296 600 370 687 323"></polygon>
                <polygon id="Shape" stroke="#D4D3E8" fill="#D4D3E8" points="601 261 628 296 635 217"></polygon>
                <polygon id="Shape" stroke="#D0D0E5" fill="#D0D0E5" points="635 217 628 296 680 241"></polygon>
                <polygon id="Shape" stroke="#B3ADD1" fill="#B3ADD1" points="589 331 600 370 628 296"></polygon>
                <polygon id="Shape" stroke="#E6AD85" fill="#E6AD85" points="560 28 545 104 624 115"></polygon>
                <polygon id="Shape" stroke="#EADCD6" fill="#EADCD6" points="598 138 564 196 635 217"></polygon>
                <polygon id="Shape" stroke="#DFA481" fill="#DFA481" points="560 28 624 115 643 94"></polygon>
                <polygon id="Shape" stroke="#E5E5F0" fill="#E5E5F0" points="564 196 592 253 635 217"></polygon>
                <polygon id="Shape" stroke="#DBDBEB" fill="#DBDBEB" points="592 253 601 261 635 217"></polygon>
                <polygon id="Shape" stroke="#CFCEE5" fill="#CFCEE5" points="601 261 580 276 628 296"></polygon>
                <polygon id="Shape" stroke="#C5C3DE" fill="#C5C3DE" points="580 276 589 331 628 296"></polygon>
                <polygon id="Shape" stroke="#EEC19E" fill="#EEC19E" points="545 104 598 138 624 115"></polygon>
                <polygon id="Shape" stroke="#D7D9EA" fill="#D7D9EA" points="592 253 580 276 601 261"></polygon>
                <polygon id="Shape" stroke="#B0A8CD" fill="#B0A8CD" points="589 331 501 352 600 370"></polygon>
                <polygon id="Shape" stroke="#F3D3B7" fill="#F3D3B7" points="545 104 564 196 598 138"></polygon>
                <polygon id="Shape" stroke="#E0E1EE" fill="#E0E1EE" points="495 242 511 279 580 276"></polygon>
                <polygon id="Shape" stroke="#CECCE4" fill="#CECCE4" points="580 276 511 279 589 331"></polygon>
                <polygon id="Shape" stroke="#DFE1EE" fill="#DFE1EE" points="495 242 580 276 592 253"></polygon>
                <polygon id="Shape" stroke="#EAEAF2" fill="#EAEAF2" points="564 196 495 242 592 253"></polygon>
                <polygon id="Shape" stroke="#F8D7B6" fill="#F8D7B6" points="545 104 498 132 564 196"></polygon>
                <polygon id="Shape" stroke="#C5C1DC" fill="#C5C1DC" points="511 279 501 352 589 331"></polygon>
                <polygon id="Shape" stroke="#E2A983" fill="#E2A983" points="495 57 545 104 560 28"></polygon>
                <polygon id="Shape" stroke="#F8E5D1" fill="#F8E5D1" points="498 132 490 184 564 196"></polygon>
                <polygon id="Shape" stroke="#F5F0ED" fill="#F5F0ED" points="490 184 495 242 564 196"></polygon>
                <polygon id="Shape" stroke="#F8C89C" fill="#F8C89C" points="489 98 498 132 545 104"></polygon>
                <polygon id="Shape" stroke="#F2B889" fill="#F2B889" points="495 57 489 98 545 104"></polygon>
                <polygon id="Shape" stroke="#E9EAF1" fill="#E9EAF1" points="495 242 459 255 511 279"></polygon>
                <polygon id="Shape" stroke="#E0DCE8" fill="#E0DCE8" points="459 255 465 312 511 279"></polygon>
                <polygon id="Shape" stroke="#D0CBE2" fill="#D0CBE2" points="465 312 501 352 511 279"></polygon>
                <polygon id="Shape" stroke="#F5F3F3" fill="#F5F3F3" points="490 184 459 255 495 242"></polygon>
                <polygon id="Shape" stroke="#FDE4C6" fill="#FDE4C6" points="448 169 490 184 498 132"></polygon>
                <polygon id="Shape" stroke="#FFDAB1" fill="#FFDAB1" points="447 131 448 169 498 132"></polygon>
                <polygon id="Shape" stroke="#BDB4D0" fill="#BDB4D0" points="465 312 480 381 501 352"></polygon>
                <polygon id="Shape" stroke="#FBEFE3" fill="#FBEFE3" points="448 169 459 255 490 184"></polygon>
                <polygon id="Shape" stroke="#EDB281" fill="#EDB281" points="433 60 489 98 495 57"></polygon>
                <polygon id="Shape" stroke="#FDCFA0" fill="#FDCFA0" points="489 98 447 131 498 132"></polygon>
                <polygon id="Shape" stroke="#BAA9C4" fill="#BAA9C4" points="465 312 423 379 480 381"></polygon>
                <polygon id="Shape" stroke="#F7BD87" fill="#F7BD87" points="433 60 447 131 489 98"></polygon>
                <polygon id="Shape" stroke="#FFDCB2" fill="#FFDCB2" points="447 131 432 160 448 169"></polygon>
                <polygon id="Shape" stroke="#FCEBD5" fill="#FCEBD5" points="448 169 399 170 459 255"></polygon>
                <polygon id="Shape" stroke="#F7EADE" fill="#F7EADE" points="399 170 397 268 459 255"></polygon>
                <polygon id="Shape" stroke="#E1D8DD" fill="#E1D8DD" points="459 255 415 287 465 312"></polygon>
                <polygon id="Shape" stroke="#CDBDCA" fill="#CDBDCA" points="415 287 423 379 465 312"></polygon>
                <polygon id="Shape" stroke="#FDE8CD" fill="#FDE8CD" points="378 181 397 268 399 170"></polygon>
                <polygon id="Shape" stroke="#E8DDD9" fill="#E8DDD9" points="397 268 415 287 459 255"></polygon>
                <polygon id="Shape" stroke="#FAE7D0" fill="#FAE7D0" points="378 181 359 228 397 268"></polygon>
                <polygon id="Shape" stroke="#C7B0BA" fill="#C7B0BA" points="415 287 361 353 423 379"></polygon>
                <polygon id="Shape" stroke="#F9C082" fill="#F9C082" points="433 60 373 129 447 131"></polygon>
                <polygon id="Shape" stroke="#FEE0B9" fill="#FEE0B9" points="432 160 399 170 448 169"></polygon>
                <polygon id="Shape" stroke="#FFD39D" fill="#FFD39D" points="373 129 432 160 447 131"></polygon>
                <polygon id="Shape" stroke="#FFD7A5" fill="#FFD7A5" points="373 129 399 170 432 160"></polygon>
                <polygon id="Shape" stroke="#F4B16A" fill="#F4B16A" points="347 82 373 129 433 60"></polygon>
                <polygon id="Shape" stroke="#D2B8B8" fill="#D2B8B8" points="346 326 361 353 415 287"></polygon>
                <polygon id="Shape" stroke="#E0CBC7" fill="#E0CBC7" points="397 268 346 326 415 287"></polygon>
                <polygon id="Shape" stroke="#FFD7A5" fill="#FFD7A5" points="373 129 378 181 399 170"></polygon>
                <polygon id="Shape" stroke="#E9D2C4" fill="#E9D2C4" points="359 228 346 326 397 268"></polygon>
                <polygon id="Shape" stroke="#ECCCB5" fill="#ECCCB5" points="283 261 346 326 359 228"></polygon>
                <polygon id="Shape" stroke="#FFD095" fill="#FFD095" points="373 129 286 170 378 181"></polygon>
                <polygon id="Shape" stroke="#FFDAAE" fill="#FFDAAE" points="286 170 359 228 378 181"></polygon>
                <polygon id="Shape" stroke="#F7B161" fill="#F7B161" points="347 82 289 105 373 129"></polygon>
                <polygon id="Shape" stroke="#FBB765" fill="#FBB765" points="289 105 279 133 373 129"></polygon>
                <polygon id="Shape" stroke="#FFC279" fill="#FFC279" points="279 133 286 170 373 129"></polygon>
                <polygon id="Shape" stroke="#E2B9A4" fill="#E2B9A4" points="283 261 282 304 346 326"></polygon>
                <polygon id="Shape" stroke="#C59E9C" fill="#C59E9C" points="346 326 287 365 361 353"></polygon>
                <polygon id="Shape" stroke="#FFDBB4" fill="#FFDBB4" points="286 170 283 261 359 228"></polygon>
                <polygon id="Shape" stroke="#EA9B48" fill="#EA9B48" points="312 35 289 105 347 82"></polygon>
                <polygon id="Shape" stroke="#D0A398" fill="#D0A398" points="282 304 287 365 346 326"></polygon>
                <polygon id="Shape" stroke="#FCCD9C" fill="#FCCD9C" points="221 197 283 261 286 170"></polygon>
                <polygon id="Shape" stroke="#EA973B" fill="#EA973B" points="248 99 289 105 312 35"></polygon>
                <polygon id="Shape" stroke="#DA842E" fill="#DA842E" points="224 28 248 99 312 35"></polygon>
                <polygon id="Shape" stroke="#F4C39A" fill="#F4C39A" points="221 197 231 261 283 261"></polygon>
                <polygon id="Shape" stroke="#FBC280" fill="#FBC280" points="258 158 221 197 286 170"></polygon>
                <polygon id="Shape" stroke="#FCBD72" fill="#FCBD72" points="279 133 258 158 286 170"></polygon>
                <polygon id="Shape" stroke="#C38F84" fill="#C38F84" points="282 304 234 379 287 365"></polygon>
                <polygon id="Shape" stroke="#C48A7B" fill="#C48A7B" points="195 348 234 379 282 304"></polygon>
                <polygon id="Shape" stroke="#E8B99B" fill="#E8B99B" points="240 274 282 304 283 261"></polygon>
                <polygon id="Shape" stroke="#F5A74D" fill="#F5A74D" points="248 99 279 133 289 105"></polygon>
                <polygon id="Shape" stroke="#D8A28A" fill="#D8A28A" points="240 274 195 348 282 304"></polygon>
                <polygon id="Shape" stroke="#ECBC99" fill="#ECBC99" points="231 261 240 274 283 261"></polygon>
                <polygon id="Shape" stroke="#D4997F" fill="#D4997F" points="189 306 195 348 240 274"></polygon>
                <polygon id="Shape" stroke="#F9AF57" fill="#F9AF57" points="248 99 258 158 279 133"></polygon>
                <polygon id="Shape" stroke="#F7C193" fill="#F7C193" points="221 197 205 211 231 261"></polygon>
                <polygon id="Shape" stroke="#E9912F" fill="#E9912F" points="196 89 168 134 248 99"></polygon>
                <polygon id="Shape" stroke="#DD8321" fill="#DD8321" points="224 28 196 89 248 99"></polygon>
                <polygon id="Shape" stroke="#F4A54B" fill="#F4A54B" points="248 99 168 134 258 158"></polygon>
                <polygon id="Shape" stroke="#F5B166" fill="#F5B166" points="168 134 221 197 258 158"></polygon>
                <polygon id="Shape" stroke="#E2AC8A" fill="#E2AC8A" points="231 261 189 306 240 274"></polygon>
                <polygon id="Shape" stroke="#EFB88C" fill="#EFB88C" points="205 211 181 253 231 261"></polygon>
                <polygon id="Shape" stroke="#E3AA85" fill="#E3AA85" points="181 253 189 306 231 261"></polygon>
                <polygon id="Shape" stroke="#F5B77E" fill="#F5B77E" points="152 198 205 211 221 197"></polygon>
                <polygon id="Shape" stroke="#F1AE6A" fill="#F1AE6A" points="168 134 152 198 221 197"></polygon>
                <polygon id="Shape" stroke="#F2B889" fill="#F2B889" points="152 198 181 253 205 211"></polygon>
                <polygon id="Shape" stroke="#D99D7E" fill="#D99D7E" points="181 253 135 294 189 306"></polygon>
                <polygon id="Shape" stroke="#CB8C75" fill="#CB8C75" points="189 306 135 294 195 348"></polygon>
                <polygon id="Shape" stroke="#BC7C6D" fill="#BC7C6D" points="135 294 112 354 195 348"></polygon>
                <polygon id="Shape" stroke="#DE831D" fill="#DE831D" points="152 65 168 134 196 89"></polygon>
                <polygon id="Shape" stroke="#DC8325" fill="#DC8325" points="152 65 123 117 168 134"></polygon>
                <polygon id="Shape" stroke="#E5AC83" fill="#E5AC83" points="152 198 108 256 181 253"></polygon>
                <polygon id="Shape" stroke="#D9A07F" fill="#D9A07F" points="108 256 135 294 181 253"></polygon>
                <polygon id="Shape" stroke="#E0A881" fill="#E0A881" points="98 240 108 256 152 198"></polygon>
                <polygon id="Shape" stroke="#E79C4E" fill="#E79C4E" points="123 117 152 198 168 134"></polygon>
                <polygon id="Shape" stroke="#E19C5B" fill="#E19C5B" points="123 117 70 184 152 198"></polygon>
                <polygon id="Shape" stroke="#B97A6D" fill="#B97A6D" points="92 323 112 354 135 294"></polygon>
                <polygon id="Shape" stroke="#E2A579" fill="#E2A579" points="70 184 98 240 152 198"></polygon>
                <polygon id="Shape" stroke="#CE710E" fill="#CE710E" points="102 65 123 117 152 65"></polygon>
                <polygon id="Shape" stroke="#D8904D" fill="#D8904D" points="62 159 70 184 123 117"></polygon>
                <polygon id="Shape" stroke="#C98D76" fill="#C98D76" points="108 256 92 323 135 294"></polygon>
                <polygon id="Shape" stroke="#D37E29" fill="#D37E29" points="102 65 62 159 123 117"></polygon>
                <polygon id="Shape" stroke="#C18975" fill="#C18975" points="22 277 92 323 108 256"></polygon>
                <polygon id="Shape" stroke="#AA6B64" fill="#AA6B64" points="92 323 66 344 112 354"></polygon>
                <polygon id="Shape" stroke="#D19A7C" fill="#D19A7C" points="98 240 29 248 108 256"></polygon>
                <polygon id="Shape" stroke="#C69279" fill="#C69279" points="29 248 22 277 108 256"></polygon>
            </g>
        </g>
    </g>
</svg>